<?xml version="1.0" ?><!DOCTYPE svg  PUBLIC '-//W3C//DTD SVG 1.1//EN'  'http://www.w3.org/Graphics/SVG/1.1/DTD/svg11.dtd'><svg height="8.4666mm" style="shape-rendering:geometricPrecision; text-rendering:geometricPrecision; image-rendering:optimizeQuality; fill-rule:evenodd; clip-rule:evenodd" version="1.1" viewBox="0 0 846.66 846.66" width="8.4666mm" xml:space="preserve" xmlns="http://www.w3.org/2000/svg" xmlns:xlink="http://www.w3.org/1999/xlink"><defs><style type="text/css">
   <![CDATA[
    .fil0 {fill:black;fill-rule:nonzero}
   ]]>
  </style></defs><g id="Layer_x0020_1"><path class="fil0" d="M391.53 346.98l-39.75 58.11 25.54 23.22 101.19 -58.89c6.12,-5.22 15,-6.62 22.68,-2.83 35.47,17.56 70.93,35.16 106.4,52.74 10.28,5.07 14.51,17.53 9.43,27.81l-42.21 85.16 100.88 -50.01 -93.4 -188.4 -190.76 53.09zm-84.28 49.61l40.75 -59.58 -85.23 -42.25 -91.8 185.18 307.81 152.57 18.84 -38 -35.33 -17.52c-24.5,-12.08 -6.12,-49.33 18.38,-37.24l35.39 17.54 17.22 -34.73 -35.33 -17.52c-24.49,-12.08 -6.12,-49.33 18.38,-37.24l35.4 17.54 18.84 -38 -77.42 -38.38 -107.41 62.52c-7.71,4.9 -18.04,4.27 -25.13,-2.18l-50.18 -45.63c-7.55,-6.86 -9.09,-18.41 -3.18,-27.08zm386.88 122.92l-149.79 74.25c-12.49,25.26 -25.04,50.51 -37.56,75.77 -5.07,10.28 -17.52,14.51 -27.81,9.43l-53.26 -26.4 -58.02 28.76c-10.28,5.08 -22.74,0.85 -27.81,-9.43l-40.66 -82.03 -146.69 -72.71 -7.78 15.69c-5.07,10.29 -17.53,14.51 -27.81,9.44l-98.12 -48.64c-10.28,-5.07 -14.5,-17.52 -9.43,-27.81l144.28 -291.06c5.07,-10.29 17.53,-14.51 27.81,-9.44l98.11 48.64c10.29,5.07 14.51,17.53 9.44,27.81l-7.82 15.77 99.54 49.34 182.78 -50.87 -5.9 -11.88c-5.07,-10.28 -0.85,-22.74 9.44,-27.81l98.11 -48.64c10.28,-5.07 22.74,-0.85 27.81,9.44l144.28 291.06c5.08,10.29 0.85,22.74 -9.43,27.81l-98.11 48.64c-10.29,5.07 -22.74,0.85 -27.82,-9.44l-7.78 -15.69zm35.79 -21.33l60.9 -30.18 -125.83 -253.85 -60.9 30.19 125.83 253.84zm-369.24 122.15l7.21 14.54 11.06 -5.49 -18.27 -9.05zm-118.11 -378.35l-60.89 -30.19 -125.84 253.85 60.9 30.18 125.83 -253.84z"/></g></svg>