<?xml version="1.0" ?><svg data-name="Layer 1" id="Layer_1" viewBox="0 0 512 512" xmlns="http://www.w3.org/2000/svg"><path d="M363,132A151.23,151.23,0,0,0,253.75,88.19c-80.86,1.16-148.21,67.86-150.13,148.69a152.47,152.47,0,0,0,64.19,128.05,20.68,20.68,0,0,1,8.83,16.75V411.5a5.16,5.16,0,0,0,5.15,5.15H330.21a5.15,5.15,0,0,0,5.15-5.15V381.66A20.51,20.51,0,0,1,344.09,365,152.44,152.44,0,0,0,363,132ZM338.13,356.59a30.84,30.84,0,0,0-13.07,25.07v24.68H187V381.68a31,31,0,0,0-13.18-25.15,142.15,142.15,0,0,1-59.85-119.41c1.79-75.35,64.59-137.55,140-138.63a142.13,142.13,0,0,1,84.23,258.1Z"/><path d="M359.65,256.63c5.5-6.13,8.42-15.56,3.78-27.81-8.69-22.92-27.41-28.62-36.51-30A24.82,24.82,0,0,0,314,179c-10.94-6-20.2-4-25.33-1.91-6-6.08-14-8.36-23.25-6.33a18.42,18.42,0,0,0-9.45,5.43,18.45,18.45,0,0,0-9.46-5.43c-9.22-2-17.24.25-23.24,6.33C218.17,175,208.91,173,198,179a24.82,24.82,0,0,0-12.89,19.79c-9.1,1.41-27.82,7.11-36.51,30-4.64,12.25-1.72,21.68,3.78,27.81-6.5,4.7-12.65,13.8-11.56,29.46,1.37,19.78,23.36,25.06,36.12,25.06H335.09c12.76,0,34.74-5.28,36.12-25.06C372.3,270.43,366.15,261.33,359.65,256.63ZM151.07,285.37c-1.12-16.06,7.08-20.84,10.6-22.15a28.94,28.94,0,0,0,11.38,2.36c7.13,0,13.88-2.71,18.09-7.87a5.15,5.15,0,1,0-8-6.51c-3.85,4.7-12.73,5.43-19.4,1.58-4.06-2.34-10.18-8.1-5.55-20.31,6.63-17.51,20.69-22.16,27.77-23.4a32.76,32.76,0,0,0,9.51,15.49c-3,3.66-5,9.27-3.23,17.17a5.15,5.15,0,0,0,5,4,4.92,4.92,0,0,0,1.14-.13,5.16,5.16,0,0,0,3.89-6.16c-1.18-5.23.41-7.89,1.9-9.19a21.58,21.58,0,0,0,14.11.83,26.21,26.21,0,0,0,16.81-15.36,5.15,5.15,0,0,0-9.7-3.47,16,16,0,0,1-9.88,8.91,11.75,11.75,0,0,1-8.88-1.14l-.24-.13a18.77,18.77,0,0,1-2.74-1.87,22,22,0,0,1-8.35-14.93c0-.08,0-.15,0-.23a17.49,17.49,0,0,1,0-3.07A14.47,14.47,0,0,1,202.91,188c5.94-3.25,11-3,14.35-2.15a42.23,42.23,0,0,0-1.67,4,5.15,5.15,0,1,0,9.68,3.53c3.8-10.44,10-14.54,19-12.56a8.53,8.53,0,0,1,6.53,8.39v72.43c-20.33,5.94-26.8-9.14-27.51-11a5.15,5.15,0,0,0-9.67,3.57,32,32,0,0,0,6.71,10.19c-9,4.59-13.75,13.62-15.18,19.18a5.15,5.15,0,0,0,3.69,6.25,5.27,5.27,0,0,0,1.3.17,5.16,5.16,0,0,0,5-3.83c.16-.59,3.92-14,17-14.33a30.83,30.83,0,0,0,9.76,1.53,40,40,0,0,0,8.94-1.08v28.55H176.91C175.9,300.85,152.13,300.67,151.07,285.37Zm209.86,0c-1.07,15.3-24.83,15.48-25.84,15.48H261.15V272.3a39.92,39.92,0,0,0,8.93,1.08,30.72,30.72,0,0,0,9.75-1.53c13.09.38,16.82,13.69,17,14.32a5.15,5.15,0,0,0,10-2.58c-1.44-5.57-6.05-14.66-15.13-19.24a32,32,0,0,0,6.66-10.13,5.15,5.15,0,1,0-9.68-3.54,21.32,21.32,0,0,1-10.16,10.64c-4.81,2.2-10.63,2.31-17.34.34V189.22a8.53,8.53,0,0,1,6.52-8.39c9.06-2,15.26,2.12,19.06,12.56a5.15,5.15,0,1,0,9.68-3.53,42.23,42.23,0,0,0-1.67-4A19.28,19.28,0,0,1,309.09,188a14.47,14.47,0,0,1,7.57,11.77c.61,6.67-2.51,13.49-8.35,18.23a19.26,19.26,0,0,1-2.67,1.83l-.33.18a11.61,11.61,0,0,1-8.86,1.12,16,16,0,0,1-9.88-8.9,5.15,5.15,0,1,0-9.7,3.47,26.24,26.24,0,0,0,16.8,15.36,21.92,21.92,0,0,0,5.88.81,21.58,21.58,0,0,0,8.25-1.65c1.4,1.25,3.08,3.91,1.89,9.2a5.16,5.16,0,0,0,3.89,6.16,5,5,0,0,0,1.14.13,5.15,5.15,0,0,0,5-4c1.78-7.9-.27-13.51-3.24-17.17A32.71,32.71,0,0,0,326,209.07c7.08,1.23,21.14,5.89,27.77,23.4,4.63,12.21-1.49,18-5.55,20.31-6.67,3.85-15.55,3.13-19.4-1.58a5.15,5.15,0,1,0-8,6.51c4.21,5.16,11,7.87,18.09,7.87a28.94,28.94,0,0,0,11.38-2.36C353.85,264.53,362.05,269.31,360.93,285.37Z"/><path d="M330.21,440.58H181.79a5.15,5.15,0,0,0,0,10.3H330.21a5.15,5.15,0,0,0,0-10.3Z"/><path d="M330.21,479.6H181.79a5.15,5.15,0,0,0,0,10.3H330.21a5.15,5.15,0,1,0,0-10.3Z"/><path d="M256,77.54a5.15,5.15,0,0,0,5.15-5.15V27.25a5.15,5.15,0,1,0-10.3,0V72.39A5.15,5.15,0,0,0,256,77.54Z"/><path d="M122.21,110.54a5.15,5.15,0,1,0,7.13-7.44l-36-34.43a5.15,5.15,0,0,0-7.12,7.44Z"/><path d="M65.9,226.76a5.16,5.16,0,0,0-5.16-5.16H11.36a5.16,5.16,0,1,0,0,10.31H60.74A5.16,5.16,0,0,0,65.9,226.76Z"/><path d="M99.44,357.69,57.36,394.42a5.15,5.15,0,1,0,6.77,7.76l42.08-36.72a5.15,5.15,0,0,0-6.77-7.77Z"/><path d="M386.23,112a5.16,5.16,0,0,0,3.56-1.43l35.95-34.43a5.15,5.15,0,1,0-7.12-7.44l-36,34.43a5.15,5.15,0,0,0,3.57,8.87Z"/><path d="M500.64,221.6H451.26a5.16,5.16,0,1,0,0,10.31h49.38a5.16,5.16,0,1,0,0-10.31Z"/><path d="M454.64,394.42l-42.08-36.73a5.15,5.15,0,1,0-6.77,7.77l42.08,36.72a5.15,5.15,0,1,0,6.77-7.76Z"/></svg>