<?xml version="1.0" encoding="utf-8"?>
<!-- Generator: Adobe Illustrator 25.2.1, SVG Export Plug-In . SVG Version: 6.00 Build 0)  -->
<svg version="1.1" id="Слой_1" xmlns="http://www.w3.org/2000/svg" xmlns:xlink="http://www.w3.org/1999/xlink" x="0px" y="0px"
	 viewBox="0 0 731 597" style="enable-background:new 0 0 731 597;" xml:space="preserve">
<g>
	<path d="M350.23,569.48c-90.84,0-181.68,0-272.52,0c-0.5,0-1.06,0.15-1.49-0.02c-1.75-0.69-3.47-1.48-5.2-2.24
		c1.71-0.75,3.41-2.17,5.12-2.17c182.68-0.1,365.35-0.1,548.03-0.1c1,0,2.08-0.19,2.97,0.13c0.77,0.28,1.95,1.29,1.85,1.75
		c-0.2,0.93-0.99,2.24-1.79,2.44c-1.57,0.41-3.3,0.2-4.97,0.2C531.57,569.48,440.9,569.48,350.23,569.48z"/>
	<path d="M364.24,228.2c-2.83,1.54-5.08,2.76-8.42,4.58c-0.37-10.23-0.76-18.98-0.91-27.74c-0.01-0.86,1.33-2.36,2.16-2.45
		c0.93-0.1,2.45,0.83,2.92,1.73c2.23,4.26,3.84,8.88,6.32,12.98c4.15,6.83,10.37,10.65,18.56,10.8c8.39,0.16,13.7-2.93,15.54-9.02
		c2.38-7.9-0.21-16.33-7.13-20.08c-6.11-3.31-12.76-5.64-19.21-8.31c-11.25-4.66-16.88-12.19-16.97-22.88
		c-0.1-11.44,9.06-21.67,20.82-23.08c7.08-0.85,13.97-0.17,20.34,3.41c1.96,1.1,3.75,2.05,5.41-0.79c0.51-0.88,2.81-1.43,3.9-1.04
		c0.88,0.31,1.63,2.24,1.68,3.48c0.26,6.99,0.4,13.99,0.31,20.98c-0.02,1.27-1.31,2.52-2.02,3.78c-1.25-1-3-1.76-3.65-3.06
		c-2.22-4.44-3.67-9.29-6.13-13.58c-2.67-4.65-7.01-7.5-12.52-8.18c-8.12-1.01-13.99,2.16-16.03,8.67
		c-2.16,6.9,0.73,14.33,7.45,17.78c5.02,2.57,10.37,4.49,15.55,6.75c2.59,1.13,5.2,2.26,7.66,3.63c11.02,6.13,15,14.56,12.68,26.57
		c-1.93,9.98-11.75,18.56-22.57,19.72C380.67,233.84,371.75,232.63,364.24,228.2z"/>
	<path d="M264.08,444.43c13.61,0,27.33-1.13,40.79,0.3c14.97,1.59,21.61,15.62,13.46,26.98c-3.2,4.46-8.77,7.21-13.93,11.27
		c6.66,8.6,13.73,18.13,21.33,27.23c1.7,2.04,5.3,2.45,7.92,3.8c1,0.51,1.71,1.57,2.55,2.37c-0.93,0.5-1.85,1.41-2.79,1.43
		c-4.99,0.14-10.01,0.31-14.97-0.1c-1.59-0.13-3.46-1.69-4.5-3.11c-6.37-8.73-12.7-17.5-18.71-26.48c-2.64-3.95-5.78-4.34-10.2-3.06
		c0,8.02-0.08,15.98,0.03,23.93c0.06,4.15,3.5,4.12,6.4,4.88c1.35,0.35,2.49,1.49,3.73,2.28c-1.36,0.59-2.71,1.65-4.08,1.68
		c-7.99,0.16-15.99,0.15-23.98,0c-1.14-0.02-2.26-1.14-3.39-1.74c1.06-0.75,2.07-2.08,3.18-2.17c5.32-0.41,6.9-3.2,6.82-8.3
		c-0.23-16.32-0.23-32.64-0.01-48.96c0.07-5.07-1.72-7.8-6.77-8.65c-1.32-0.22-2.46-1.58-3.68-2.41
		C263.55,445.21,263.81,444.82,264.08,444.43z M284.88,479.6c4.04,0,7.22,0.32,10.32-0.06c7.24-0.89,12.78-7.5,13.24-15.35
		c0.46-7.81-2.85-13.47-9.47-15c-3.67-0.84-7.6-0.76-11.4-0.67c-0.91,0.02-2.54,1.72-2.56,2.67
		C284.8,460.49,284.88,469.78,284.88,479.6z"/>
	<path d="M592.86,517.88c-5.49,0-10.99,0.09-16.48-0.08c-1.03-0.03-2.02-1.07-3.03-1.65c0.9-0.7,1.72-1.82,2.73-2.03
		c6.78-1.4,7.26-1.86,7.26-8.79c0.01-15.98-0.1-31.97,0.06-47.95c0.05-5-1.18-8.41-6.7-9.25c-1.08-0.16-1.96-1.68-2.93-2.58
		c1.2-0.56,2.41-1.61,3.61-1.62c10.65-0.08,21.32-0.35,31.96,0.16c16.27,0.78,30.33,10.99,33.74,25.1
		c7.46,30.81-12.07,46.63-34.75,48.5c-5.13,0.42-10.31,0.06-15.47,0.06C592.86,517.81,592.86,517.84,592.86,517.88z M631.77,483.49
		c0.14-23.4-12.31-36.05-32.89-35.08c-2.4,0.11-4.18,0.35-4.16,3.48c0.1,17.97,0.08,35.95,0.12,53.92c0.01,3.85,2.07,6.64,5.66,7.23
		c8.52,1.41,16.66,0.46,23.09-6.18C630.35,499.89,631.46,491.01,631.77,483.49z"/>
	<path d="M102.58,499.03c0-14.47,0.06-27.61-0.03-40.75c-0.04-5.41-2.89-8.52-8.24-9.73c-1.59-0.36-2.91-1.96-4.35-3
		c1.71-0.56,3.4-1.56,5.12-1.6c7.16-0.18,14.33-0.16,21.49,0.02c1.1,0.03,2.17,1.27,3.25,1.94c-0.89,0.77-1.65,1.92-2.68,2.26
		c-7.93,2.59-8.96,3.65-9.07,13.02c-0.2,17-0.09,33.99-0.11,50.99c0,1.97,0,3.93,0,5.68c-4.18,1.86-5.64-0.88-7.29-3.1
		c-12.22-16.43-24.42-32.87-36.64-49.3c-1.33-1.79-2.69-3.56-4.87-6.42c-0.25,2.56-0.45,3.63-0.45,4.71
		c0.01,11.83-0.11,23.67,0.14,35.49c0.21,9.99,2.41,13.12,10.4,14.37c0.96,0.15,1.73,1.52,2.58,2.33c-1.01,0.59-2.01,1.66-3.03,1.68
		c-8,0.15-16,0.17-23.99,0.05c-1.07-0.02-2.12-1.01-3.18-1.56c0.8-0.86,1.45-2.13,2.44-2.51c8.38-3.22,9.36-4.31,9.47-13.36
		c0.16-12.66,0.11-25.33,0.08-37.99c-0.02-8.22-2.32-11.2-10.13-13.99c-1.16-0.42-2.03-1.66-3.03-2.52c1.16-0.62,2.28-1.7,3.48-1.8
		c16.56-1.27,16.54-1.22,26.51,12.27c9.5,12.85,19.05,25.67,28.6,38.49C99.92,495.87,100.88,496.95,102.58,499.03z"/>
	<path d="M214.88,448.28c0,9.89,0,19.16,0,29.29c4.17-0.22,8.3-0.07,12.3-0.74c4.57-0.77,6.1-4.58,7.29-8.61
		c0.32-1.07,1.84-1.79,2.81-2.66c0.5,1.1,1.43,2.19,1.45,3.3c0.13,7.5,0.12,15,0,22.5c-0.01,0.94-0.91,1.86-1.4,2.79
		c-0.93-0.73-2.32-1.25-2.74-2.21c-4.42-10.14-6.91-11.42-19.61-9.55c0,8.7-0.29,17.47,0.25,26.19c0.11,1.68,3.38,4.29,5.4,4.51
		c5.76,0.63,11.66,0.56,17.44,0.09c2.2-0.18,4.63-1.85,6.28-3.51c1.94-1.96,3.05-4.72,4.69-7.02c1.59-2.23,3.38-4.31,5.08-6.45
		c0.37,2.6,1.06,5.2,1.02,7.79c-0.07,4.45-0.6,8.9-0.98,13.91c-4.38,0-8.33,0-12.29,0c-15,0-30,0.04-45-0.07
		c-1.35-0.01-2.7-1.04-4.05-1.6c1.17-0.81,2.24-2.06,3.53-2.35c6.31-1.4,6.97-1.98,6.99-8.74c0.05-15.84-0.13-31.67,0.1-47.51
		c0.08-5.47-1.99-8.42-7.34-9.46c-1.35-0.26-2.47-1.66-3.7-2.54c0.27-0.56,0.54-1.13,0.8-1.69c1.79,0,3.58,0,5.37,0
		c15.5-0.01,31.01,0.1,46.51-0.13c4-0.06,5.37,1.21,5.03,5.11c-0.28,3.31,0.02,6.67-0.18,9.99c-0.06,0.94-0.86,2.45-1.54,2.58
		c-0.8,0.15-1.99-0.75-2.71-1.49c-0.66-0.68-0.9-1.77-1.38-2.64c-3.33-5.99-7.97-9.6-15.28-9.11
		C224.42,448.53,219.79,448.28,214.88,448.28z"/>
	<path d="M365.7,491.68c1.95,1.79,3.49,2.68,4.24,4c1.96,3.45,3.25,7.32,5.4,10.63c5.01,7.68,12.92,10.48,21.78,8.18
		c7.96-2.06,11.16-13.38,5.26-20.55c-2.5-3.04-6.4-5.12-10.01-6.99c-4.57-2.36-9.59-3.82-14.21-6.09
		c-8.41-4.14-12.55-12.64-10.88-21.52c1.65-8.76,9.23-16.27,18.31-16.44c6.62-0.12,13.28,1.59,19.61,3.59c1.87-1,3.74-2,5.6-2.99
		c0.56,0.25,1.12,0.49,1.69,0.74c0,7.43,0.06,14.85-0.1,22.28c-0.02,0.72-1.59,2.13-2.05,1.98c-1.06-0.33-2.26-1.25-2.72-2.25
		c-1.54-3.31-2.58-6.86-4.2-10.13c-2.51-5.08-6.69-8.21-12.36-9.08c-5.96-0.92-11.36,2.01-13.45,7.19
		c-2.1,5.21-0.12,11.78,4.95,14.9c3.23,1.99,6.83,3.41,10.31,4.99c3.63,1.66,7.44,2.97,10.95,4.84
		c9.41,4.99,12.87,11.68,11.55,21.64c-1.16,8.72-8.43,16.41-17.51,18.36c-7.38,1.58-14.6,1.03-21.47-2.25
		c-2.39-1.14-4.23-2.16-6.41,0.71c-1.19,1.57-4.09,2.01-4.2-1.27C365.53,508.56,365.7,500.94,365.7,491.68z"/>
	<path d="M500.71,477.56c0.01-6.67-0.16-13.34,0.06-20c0.16-4.9-1.71-7.9-6.51-9.23c-1.18-0.33-2.09-1.62-3.13-2.46
		c1.29-0.66,2.56-1.87,3.87-1.9c7.83-0.18,15.67-0.14,23.5-0.01c1.07,0.02,2.12,1,3.18,1.53c-0.95,0.88-1.84,2.44-2.85,2.53
		c-5.58,0.48-7.13,3.54-7.04,8.77c0.24,13.16-0.05,26.34,0.15,39.5c0.14,9.44,4.59,15.17,12.52,16.97
		c9.91,2.24,19.02-1.05,22.92-8.8c1.37-2.72,2.15-6.02,2.22-9.08c0.26-11.16,0.2-22.33,0.07-33.5c-0.11-9.27-1.38-10.71-10.31-13.81
		c-1.02-0.35-1.73-1.57-2.59-2.38c1.01-0.59,2.01-1.66,3.03-1.68c8-0.14,16-0.14,24,0c1.03,0.02,2.04,1.07,3.05,1.65
		c-0.84,0.8-1.54,2.01-2.54,2.33c-7.76,2.48-8.97,3.66-9.18,11.92c-0.27,10.49-0.16,21-0.16,31.5
		c-0.01,20.57-13.63,31.69-33.99,27.73c-13.99-2.72-20.28-10.35-20.26-24.58C500.71,488.89,500.71,483.23,500.71,477.56z"/>
	<path d="M122.37,463.1c0-5.31,0.07-10.63-0.03-15.93c-0.05-2.73,1.29-3.34,3.71-3.33c18.99,0.06,37.98,0.07,56.98,0
		c2.68-0.01,4.01,0.75,3.91,3.66c-0.15,4.49,0.06,9-0.15,13.49c-0.05,0.99-1.19,1.93-1.83,2.89c-0.84-0.63-1.93-1.09-2.45-1.91
		c-1.14-1.82-2.1-3.78-2.94-5.77c-3.21-7.53-9.64-8.49-16.6-7.92c-1.01,0.08-2.68,1.95-2.69,3c-0.15,18.49-0.08,36.98-0.06,55.48
		c0.01,5.13,3.72,5.99,7.64,6.91c1.5,0.35,2.78,1.61,4.17,2.45c-1.49,0.6-2.98,1.7-4.48,1.72c-8.83,0.16-17.66,0.14-26.48-0.03
		c-1.27-0.03-2.52-1.23-3.78-1.89c1.15-0.69,2.23-1.78,3.46-2.01c7.79-1.45,8.13-1.77,8.13-9.68c0.01-16.99-0.14-33.99,0.11-50.98
		c0.07-4.39-1.54-5.01-5.47-5.24c-9.25-0.53-12.68,5.73-16.14,12.4c-0.78,1.5-2.23,2.66-3.37,3.97
		C123.45,463.95,122.91,463.52,122.37,463.1z"/>
	<path d="M647.34,443.86c9.48,0,18.96-0.05,28.43,0.08c0.86,0.01,1.7,1.12,2.55,1.72c-0.88,0.73-1.65,1.79-2.66,2.13
		c-2.13,0.71-4.39,1.04-7.64,1.76c5.6,10.52,10.8,20.28,16.22,30.47c1.06-0.93,1.94-1.4,2.38-2.13c4.47-7.42,8.99-14.82,13.23-22.37
		c2.7-4.8,2-6-3.3-7.13c-0.98-0.21-2.08-0.15-2.91-0.6c-0.73-0.4-1.6-1.37-1.57-2.06c0.02-0.63,1.15-1.74,1.8-1.75
		c7.17-0.12,14.33-0.11,21.5,0.01c0.7,0.01,1.67,0.94,1.97,1.66c0.2,0.5-0.36,1.84-0.88,2.05c-12.66,5.04-15.42,18.09-22.61,27.58
		c-7.11,9.39-7.24,20.03-6.8,30.95c0.16,3.93,2.14,6.16,5.85,7.02c1.3,0.3,2.74,0.25,3.89,0.81c0.83,0.4,1.3,1.55,1.93,2.36
		c-0.75,0.49-1.5,1.41-2.26,1.41c-10,0.09-20,0.08-30-0.03c-0.75-0.01-1.49-0.97-2.23-1.49c0.68-0.77,1.24-1.78,2.09-2.23
		c0.82-0.44,1.95-0.36,2.94-0.41c4.73-0.24,5.95-2.81,6.69-7.4c2.7-16.83-6.06-29.82-13.47-43.33c-1.76-3.21-3.43-6.56-5.75-9.34
		c-1.82-2.18-4.58-3.58-6.92-5.32c-1.15-0.86-2.32-1.69-3.48-2.54C646.67,445.11,647.01,444.48,647.34,443.86z"/>
	<path d="M447.8,449.05c-10.92-2.78-16.31,0.18-21.48,11.16c-0.77,1.63-2.4,2.85-3.63,4.26c-0.43-0.32-0.86-0.63-1.29-0.95
		c0-6.38,0-12.76,0-19.3c1.34-0.14,2.3-0.34,3.27-0.34c18.83-0.02,37.66,0.06,56.49-0.07c3.47-0.02,4.82,1.05,4.59,4.58
		c-0.24,3.65,0.14,7.34-0.12,10.99c-0.11,1.52-1.15,2.98-1.77,4.47c-1.04-1.07-2.24-2.03-3.06-3.25c-1.02-1.51-1.74-3.22-2.55-4.86
		c-3.45-6.98-9.65-8.1-16.46-7.42c-1,0.1-2.58,2.04-2.59,3.13c-0.15,18.33-0.1,36.66-0.08,54.99c0.01,5.2,3.47,6.59,7.8,7.3
		c1.36,0.22,2.55,1.42,3.82,2.17c-1.43,0.67-2.85,1.88-4.29,1.91c-8.83,0.17-17.66,0.15-26.49-0.02c-1.29-0.02-2.57-1.18-3.85-1.8
		c1.11-0.73,2.14-1.88,3.35-2.11c8.01-1.52,8.33-1.8,8.33-10.05c0.01-15.66,0-31.33,0-46.99C447.8,454.21,447.8,451.57,447.8,449.05
		z"/>
	<path d="M324.58,230.79c-4.99-0.01-9.99,0.13-14.98-0.11c-1.22-0.06-2.38-1.36-3.57-2.09c1.16-0.84,2.24-1.86,3.52-2.45
		c1.02-0.46,2.28-0.37,3.43-0.55c3.63-0.59,5.49-2.49,5.47-6.41c-0.08-19.81-0.12-39.62,0.02-59.42c0.04-5.9-3.8-7.45-8.35-8.87
		c-1.53-0.48-2.74-1.99-4.1-3.03c1.51-0.62,3.01-1.75,4.53-1.78c9.65-0.16,19.31-0.17,28.96,0.01c1.4,0.03,2.77,1.39,4.15,2.13
		c-1.21,0.81-2.32,2.1-3.64,2.36c-8.12,1.63-9.05,2.6-9.06,10.84c-0.01,17.81-0.03,35.62,0.03,53.43c0.03,8.78,0.63,9.4,9.2,11.16
		c0.49,0.1,1.14,0,1.45,0.28c0.75,0.68,1.35,1.54,2.01,2.32c-0.87,0.72-1.69,1.97-2.62,2.06c-2.8,0.28-5.65,0.11-8.48,0.11
		C329.9,230.8,327.24,230.8,324.58,230.79z"/>
	<path d="M18.16,443.87c4.33,0,8.67-0.12,12.99,0.08c1.21,0.06,2.38,1.06,3.57,1.63c-0.96,0.83-1.8,2.13-2.9,2.41
		c-8.08,2.07-8.09,2.01-8.09,10.26c0,15.32,0,30.64-0.01,45.97c0,7.12,0.73,7.94,7.4,9.59c1.31,0.32,2.38,1.62,3.56,2.47
		c-1.22,0.54-2.44,1.52-3.67,1.54c-8.66,0.13-17.32,0.13-25.98-0.02c-1.15-0.02-2.28-1.1-3.41-1.69c1.06-0.77,2.03-1.99,3.19-2.23
		c7.48-1.55,7.52-1.48,7.54-8.94c0.02-15.82-0.13-31.65,0.1-47.46c0.08-5.29-1.97-8.04-7.07-9.11c-1.39-0.29-2.53-1.84-3.78-2.82
		c1.52-0.56,3.02-1.51,4.57-1.6C10.15,443.72,14.16,443.87,18.16,443.87z"/>
	<path d="M417.67,40.26c3.1,9.46,14.56,13.1,12.34,24.33C419.93,62.31,413.67,50.68,417.67,40.26z"/>
	<path d="M477,262.93c-8.51-8.82,0.69-17.67-0.94-26.55C484.01,241.22,484.39,253.58,477,262.93z"/>
	<path d="M344.23,312.83c-3.16,9.32-14.07,14.11-23.73,10.41C321.47,317.28,322.67,316.75,344.23,312.83z"/>
	<path d="M301.19,318.33c11.01,0.98,18.68,10.48,16.65,21.29C313.16,331.36,301.22,329.99,301.19,318.33z"/>
	<path d="M392.22,33.2c5.43,8.54,17.01,10.33,17.3,21.88C398.52,53.94,391.1,44.98,392.22,33.2z"/>
	<path d="M237.56,251.08c11.91-1.08,14.3,10.8,23.44,14.58C249.56,268.28,239.9,262.05,237.56,251.08z"/>
	<path d="M467.61,279.93c6.93-9.87,16.2-12.66,26.22-7.57C484.57,274.44,478.86,284.61,467.61,279.93z"/>
	<path d="M468.43,254.27c5.62,8.56,3.78,18.63-4.71,26.01c-3.93-3.01-3.25-6.88-1.78-10.67
		C463.91,264.53,466.18,259.56,468.43,254.27z"/>
	<path d="M503.08,198.23c-3.04-9.46,2-19.38,11.76-23.12C514.43,187.15,509.41,197.03,503.08,198.23z"/>
	<path d="M385.93,64.05c4.14-8.03,14.69-10.3,24.59-5.31C408.96,64.61,403.14,65.87,385.93,64.05z"/>
	<path d="M476.6,138.91c9.88-0.41,17.42,6.72,18.67,17.65C489.22,158.26,486.17,155.38,476.6,138.91z"/>
	<path d="M439.44,322.96c-8.53-1.54-17.81,5.79-26.1-1.93C419.82,313.72,432.19,314.61,439.44,322.96z"/>
	<path d="M482,157.23c11.28,2.07,17.6,11.36,15.92,22.58C486.76,176.32,488.51,164.55,482,157.23z"/>
	<path d="M346.07,64.6c0.35-9.46,10.03-17.96,22.26-15.95C365.13,59.98,352.92,57.74,346.07,64.6z"/>
	<path d="M324.74,308.81c-4.12,7.73-16.74,11.17-23.61,6.54c-0.67-0.45-0.9-3.11-0.46-3.39c2.04-1.31,4.34-2.84,6.64-3.01
		C313.03,308.53,318.81,308.81,324.74,308.81z"/>
	<path d="M248.45,275.09c8.62,7.17,9.74,19.67,2.37,26.81C251.08,292.73,242.21,284.87,248.45,275.09z"/>
	<path d="M245.48,103.54c-2.99,9.3-15.09,17.24-24.04,12.42C229.84,112.38,233.74,101.48,245.48,103.54z"/>
	<path d="M477.61,84.21c-0.04,9.14,8.49,16.97,2.6,26.7C471.43,104.64,470.15,91.67,477.61,84.21z"/>
	<path d="M340.97,32.12c7.72,5.88,19.23,2.58,23.65,13.13C354.91,48.9,343.17,42.68,340.97,32.12z"/>
	<path d="M455.04,105.82c8.1-4.6,18.4-0.8,24.43,9.4c-4.95,3.61-9.03,0.69-13.01-1.76C462.54,111.04,458.79,108.34,455.04,105.82z"
		/>
	<path d="M501.24,175.75c-3.46-7.89,1.78-22.2,12.55-23.48C508.71,159.88,511.83,171.15,501.24,175.75z"/>
	<path d="M233.97,188.43c-8.69-2.09-13.51-12.97-10.31-23.27C229.72,165.97,230.56,167.87,233.97,188.43z"/>
	<path d="M305.02,73.66c-0.42-9.11,6.9-18,15.72-18.83c0.84-0.08,2.81,2.19,2.63,2.56c-1.21,2.46-2.42,5.26-4.47,6.9
		C314.55,67.74,309.7,70.55,305.02,73.66z"/>
	<path d="M408.43,319.72c-1.16-12.05,9.98-14.98,14.25-23.37C425.53,306.5,420.37,314.86,408.43,319.72z"/>
	<path d="M293.78,331.08c-3.56-9.3-14.44-13.24-12.59-24.35C291.37,308.92,297.29,319.79,293.78,331.08z"/>
	<path d="M367.04,315.51c-3.46,9.08-12.86,13.17-23.72,10.32C344.43,319.49,350.97,316.65,367.04,315.51z"/>
	<path d="M495.31,222.47c-10.45-5.44-6.27-16.5-10.75-24.64C494.71,201.47,499.28,212.16,495.31,222.47z"/>
	<path d="M235.95,255.89c7.02,8.83,5.91,21.09-2.48,26.5C235.02,273.46,228.07,264.5,235.95,255.89z"/>
	<path d="M278.62,72.04c-5.71,7.96-20.92,9.93-26.94,2.58C260.9,74.68,268.51,65.78,278.62,72.04z"/>
	<path d="M221.29,186.11c11.39,3.7,9.63,15.36,15.86,22.26C226.81,207.29,220.39,198.38,221.29,186.11z"/>
	<path d="M455.34,271.74c5.59,7.34,1.25,19.89-6.86,24.72C444.08,292.18,445.1,288.51,455.34,271.74z"/>
	<path d="M500.55,202.38c-12.12-2.86-9.24-15.35-16.3-21.86C494.57,181.19,501.14,190.21,500.55,202.38z"/>
	<path d="M283.04,72.35c4.09,11.44-7.09,16.27-9.06,24.88C268.14,90.53,272.31,78.91,283.04,72.35z"/>
	<path d="M461.18,308.47c-9.76,0.19-17.53,8.56-27.2,2.54C440.86,302.46,452.11,301.2,461.18,308.47z"/>
	<path d="M226.47,231.38c5.79-2.14,9.27,1.14,12.41,4.59c3.02,3.31,5.61,7.02,7.99,10.03C240.42,248.92,229.71,242.37,226.47,231.38
		z"/>
	<path d="M225.19,235.24c6.55,9.92,5.51,20.82-2.6,27.09C223.82,253.14,217.13,244.08,225.19,235.24z"/>
	<path d="M260.48,86.53c-5.04,9.68-16.08,13.18-25.73,7.68C243.92,92.19,249.68,82.12,260.48,86.53z"/>
	<path d="M366.24,346.55c-6.71-6.89-18.23-6.13-20.57-17.06C355.16,326.96,365.76,335.35,366.24,346.55z"/>
	<path d="M386.39,311.99c-0.8,8.54-12.08,17.31-19.53,15.22c-0.74-0.21-1.72-2.7-1.35-3.21c1.52-2.07,3.23-4.38,5.43-5.5
		C375.88,316,381.15,314.15,386.39,311.99z"/>
	<path d="M487.61,243.57c-9.37-7.48-2.81-17.52-5.97-25.87C490.55,220.65,493.46,233.15,487.61,243.57z"/>
	<path d="M260.11,112.2c-5.63-8.79-3.73-18.87,4.43-25.52C268.9,90.43,268.9,90.43,260.11,112.2z"/>
	<path d="M225.53,145.07c-0.8,10.41-11.72,19.55-20.96,16.54C212.37,156.79,213.78,145.22,225.53,145.07z"/>
	<path d="M326.82,66.57c0.54-10.59,8.49-18.41,18.16-18.39C345.99,54.37,341.05,59.41,326.82,66.57z"/>
	<path d="M390.6,52.14c-5.58,10.52-16.58,6.35-24.15,10.82C367.52,53.98,378.66,48.81,390.6,52.14z"/>
	<path d="M505.25,127.96c-3.49,8.22,1.59,18.53-7.44,25.13C492.1,146.58,495.71,129.9,505.25,127.96z"/>
	<path d="M234.7,168.75c-8.71-3.74-10.01-17.25-5.55-25.19C235.15,145.59,235.83,148.67,234.7,168.75z"/>
	<path d="M343.58,344.54c-6.72-7.13-18.42-6.43-20.99-17.47C332.85,325.19,342.52,332.98,343.58,344.54z"/>
	<path d="M232.87,122.81c-3.05,12.29-10.77,18.37-21.28,17.06C219.05,134.51,220.85,123.33,232.87,122.81z"/>
	<path d="M241.98,146.68c-8.98-5.91-11.12-16.85-5.12-25.74C246.08,128.29,239.1,138.53,241.98,146.68z"/>
	<path d="M467.01,121.54c8.24-3.37,19.55,4.38,21.96,13.5C483.82,138.05,483.82,138.05,467.01,121.54z"/>
	<path d="M218.32,189.86c3.14,11.08-2.32,21.32-12.51,23.73C210.45,205.78,208.02,194.9,218.32,189.86z"/>
	<path d="M429.44,310.8c-4.06-11.82,7.19-16.77,9.58-26.03C443.4,295.1,440.28,303.47,429.44,310.8z"/>
	<path d="M316.08,37.89c8.31,3.42,18.87-2.08,25.27,7.88C332.61,50.97,318.36,46.85,316.08,37.89z"/>
	<path d="M301.75,62.2c2.98,5.24,2.98,5.24-13.21,21.65C285.21,75.65,291.07,66.04,301.75,62.2z"/>
	<path d="M516.4,198.91c-6.7,6.39-5.68,18.28-17.09,20.52C497.79,208.81,505.45,199.4,516.4,198.91z"/>
	<path d="M272.24,58.54c8.46,1.26,17.63-5.96,25.86,2C290.51,67.56,278.59,66.7,272.24,58.54z"/>
	<path d="M220.45,167.31c0.46,11.61-7.48,20.91-17.26,20.27C209.74,181.35,208.76,169.55,220.45,167.31z"/>
	<path d="M271.32,317.04c-1.68-8.41-12.05-14.21-7.74-24.84C272.97,296.43,276.68,308.11,271.32,317.04z"/>
	<path d="M368.32,329.18c12.8-1.42,21.24,3.32,23.46,13.55C384.12,337.14,372.76,340.56,368.32,329.18z"/>
	<path d="M220.19,213.57c4.5,7.44,1.85,21.89-7.25,24.73C213.32,219.68,214.17,216.68,220.19,213.57z"/>
	<path d="M491.93,241.13c0.96-10.53,10.27-18.15,21.12-16.71C505.07,229.52,503.75,241.34,491.93,241.13z"/>
	<path d="M386.82,324.76c1-12.07,13.04-12.32,18.58-19.87C405.92,315.74,398.86,323.27,386.82,324.76z"/>
	<path d="M367.03,31.46c6.28,6.41,17.59,5.7,20.21,16.39C377.78,50.68,366.74,41.89,367.03,31.46z"/>
	<path d="M479.04,291.98c-9.7,1.06-16.43,10.43-26.63,5.01C458.34,288.15,469.58,285.74,479.04,291.98z"/>
	<path d="M459.16,66.31c1.44,9.45,11.77,15.07,7.4,25.58C458.22,89.36,452.6,74.34,459.16,66.31z"/>
	<path d="M449.35,77.33c-10.81-6.48-14.49-16.14-9.89-25.95C441.58,60.71,452.8,65.52,449.35,77.33z"/>
	<path d="M279.98,301.82c8.91-7.33,17.5,0.66,26.23-0.33C301.58,309.46,288.79,309.64,279.98,301.82z"/>
	<path d="M242,227.46c-11.31,0.34-19.5-7.74-19.59-18.75C233.83,209.83,234.45,221.42,242,227.46z"/>
	<path d="M493.15,104.48c-1.75,9.47,5.33,18.58-2.65,26.81C483.61,123.2,484.51,111.65,493.15,104.48z"/>
	<path d="M249.75,128.69c-7.54-7.81-7.49-17.93,0.12-26.43C257.32,111.35,249.12,120.06,249.75,128.69z"/>
	<path d="M424.06,78.81c7.19-6.51,17.77-5.67,25.95,2.28c-3.57,4.48-8.09,3.36-12.47,2.13C433.1,81.96,428.76,80.36,424.06,78.81z"
		/>
	<path d="M404.81,69.83c4.79-8.34,20.9-7.21,26.19-0.12C422.26,76.76,413.86,69.12,404.81,69.83z"/>
	<path d="M505.12,249.42c-8.46,3.24-12.28,14.29-23.49,12.32C483.81,251.55,495.99,245.13,505.12,249.42z"/>
	<path d="M466.37,96.7c-4.74,3.9-5.84,3.69-24.9-4.74C447.45,85.57,460.97,88.15,466.37,96.7z"/>
	<path d="M263.48,287.19c10.13-5.74,16.98,4.17,25.89,4.65C282.84,298.7,269.22,296.22,263.48,287.19z"/>
	<path d="M319.38,52.67c-8.62,4.51-21.84,1.86-25.83-8.14C302.03,48.43,312.82,42.66,319.38,52.67z"/>
	<path d="M416.75,334.25c-23.32-2.8-23.32-2.8-24.91-7.63C401.02,321.89,411.34,324.89,416.75,334.25z"/>
	<path d="M273.35,280.56c-9.56,3.76-18.83-0.02-24-9.43C254.4,267.45,258.13,268.9,273.35,280.56z"/>
</g>
</svg>
